<?xml version="1.0" encoding="UTF-8" standalone="no"?>
<!DOCTYPE svg PUBLIC "-//W3C//DTD SVG 1.1//EN"
 "http://www.w3.org/Graphics/SVG/1.1/DTD/svg11.dtd">
<!-- Generated by graphviz version 2.38.0 (20140413.2041)
 -->
<!-- Title: finite state automata Pages: 1 -->
<svg width="206pt" height="108pt"
 viewBox="0.00 0.00 205.89 108.10" xmlns="http://www.w3.org/2000/svg" xmlns:xlink="http://www.w3.org/1999/xlink">
<g id="graph0" class="graph" transform="scale(1 1) rotate(0) translate(4 104.096)">
<title>finite state automata</title>
<polygon fill="white" stroke="none" points="-4,4 -4,-104.096 201.891,-104.096 201.891,4 -4,4"/>
<!-- start -->
<g id="node1" class="node"><title>start</title>
<ellipse fill="black" stroke="black" cx="3.6" cy="-28.0479" rx="3.6" ry="3.6"/>
</g>
<!-- even -->
<g id="node2" class="node"><title>even</title>
<ellipse fill="none" stroke="black" cx="71.4976" cy="-28.0479" rx="27.0966" ry="27.0966"/>
<text text-anchor="middle" x="71.4976" y="-24.3479" font-family="Times,serif" font-size="14.00">even</text>
</g>
<!-- start&#45;&gt;even -->
<g id="edge1" class="edge"><title>start&#45;&gt;even</title>
<path fill="none" stroke="black" d="M7.43154,-26.0479C11.8509,-26.0479 20.9154,-26.0479 30.8275,-26.0479"/>
<path fill="none" stroke="none" d="M7.43154,-28.0479C11.8509,-28.0479 20.9154,-28.0479 30.8275,-28.0479"/>
<path fill="none" stroke="black" d="M7.43154,-30.0479C11.8509,-30.0479 20.9154,-30.0479 30.8275,-30.0479"/>
<polygon fill="black" stroke="black" points="31.0268,-32.598 44.0268,-28.0479 31.0268,-23.498 31.0268,-32.598"/>
</g>
<!-- even&#45;&gt;even -->
<g id="edge4" class="edge"><title>even&#45;&gt;even</title>
<path fill="none" stroke="black" d="M63.7315,-54.3994C62.0768,-69.8673 64.6655,-84.3454 71.4976,-84.3454 77.2621,-84.3454 80.0057,-74.0383 79.7285,-61.5261"/>
<polygon fill="black" stroke="black" points="79.2637,-54.3994 82.8627,-61.1795 79.4915,-57.892 79.7194,-61.3846 79.7194,-61.3846 79.7194,-61.3846 79.4915,-57.892 76.576,-61.5897 79.2637,-54.3994 79.2637,-54.3994"/>
<text text-anchor="middle" x="71.4976" y="-88.1454" font-family="Times,serif" font-size="14.00">b</text>
</g>
<!-- odd -->
<g id="node3" class="node"><title>odd</title>
<ellipse fill="none" stroke="black" cx="169.843" cy="-28.0479" rx="24.089" ry="24.089"/>
<ellipse fill="none" stroke="black" cx="169.843" cy="-28.0479" rx="28.0958" ry="28.0958"/>
<text text-anchor="middle" x="169.843" y="-24.3479" font-family="Times,serif" font-size="14.00">odd</text>
</g>
<!-- even&#45;&gt;odd -->
<g id="edge2" class="edge"><title>even&#45;&gt;odd</title>
<path fill="none" stroke="black" d="M98.8244,-28.0479C109.805,-28.0479 122.708,-28.0479 134.425,-28.0479"/>
<polygon fill="black" stroke="black" points="141.54,-28.0479 134.54,-31.198 138.04,-28.0479 134.54,-28.048 134.54,-28.048 134.54,-28.048 138.04,-28.0479 134.54,-24.898 141.54,-28.0479 141.54,-28.0479"/>
<text text-anchor="middle" x="120.295" y="-31.8479" font-family="Times,serif" font-size="14.00">a</text>
</g>
<!-- odd&#45;&gt;even -->
<g id="edge3" class="edge"><title>odd&#45;&gt;even</title>
<path fill="none" stroke="black" d="M146.858,-11.9281C137.784,-7.09987 127.014,-3.64993 116.795,-6.04787 111.738,-7.23463 106.596,-9.08918 101.694,-11.2296"/>
<polygon fill="black" stroke="black" points="95.186,-14.2897 100.18,-8.46032 98.3533,-12.8003 101.521,-11.3109 101.521,-11.3109 101.521,-11.3109 98.3533,-12.8003 102.861,-14.1615 95.186,-14.2897 95.186,-14.2897"/>
<text text-anchor="middle" x="120.295" y="-9.84787" font-family="Times,serif" font-size="14.00">a</text>
</g>
<!-- odd&#45;&gt;odd -->
<g id="edge5" class="edge"><title>odd&#45;&gt;odd</title>
<path fill="none" stroke="black" d="M161.337,-55.0463C159.602,-70.6086 162.437,-85.0957 169.843,-85.0957 176.092,-85.0957 179.087,-74.7821 178.828,-62.2112"/>
<polygon fill="black" stroke="black" points="178.349,-55.0463 181.959,-61.8206 178.582,-58.5385 178.816,-62.0307 178.816,-62.0307 178.816,-62.0307 178.582,-58.5385 175.673,-62.2408 178.349,-55.0463 178.349,-55.0463"/>
<text text-anchor="middle" x="169.843" y="-88.8957" font-family="Times,serif" font-size="14.00">b</text>
</g>
</g>
</svg>
