<?xml version="1.0" encoding="UTF-8" standalone="no"?>
<!DOCTYPE svg PUBLIC "-//W3C//DTD SVG 1.1//EN"
 "http://www.w3.org/Graphics/SVG/1.1/DTD/svg11.dtd">
<!-- Generated by graphviz version 2.38.0 (20140413.2041)
 -->
<!-- Title: finite state automata Pages: 1 -->
<svg width="343pt" height="279pt"
 viewBox="0.00 0.00 342.88 278.53" xmlns="http://www.w3.org/2000/svg" xmlns:xlink="http://www.w3.org/1999/xlink">
<g id="graph0" class="graph" transform="scale(1 1) rotate(0) translate(4 274.533)">
<title>finite state automata</title>
<polygon fill="white" stroke="none" points="-4,4 -4,-274.533 338.885,-274.533 338.885,4 -4,4"/>
<!-- start -->
<g id="node1" class="node"><title>start</title>
<ellipse fill="black" stroke="black" cx="3.6" cy="-135.266" rx="3.6" ry="3.6"/>
</g>
<!-- neither -->
<g id="node3" class="node"><title>neither</title>
<ellipse fill="none" stroke="black" cx="79.2" cy="-135.266" rx="35.194" ry="35.194"/>
<text text-anchor="middle" x="79.2" y="-131.566" font-family="Times,serif" font-size="14.00">neither</text>
</g>
<!-- start&#45;&gt;neither -->
<g id="edge1" class="edge"><title>start&#45;&gt;neither</title>
<path fill="none" stroke="black" d="M7.24635,-133.266C11.9632,-133.266 20.7534,-133.266 30.612,-133.266"/>
<path fill="none" stroke="none" d="M7.24635,-135.266C11.9632,-135.266 20.7534,-135.266 30.612,-135.266"/>
<path fill="none" stroke="black" d="M7.24635,-137.266C11.9632,-137.266 20.7534,-137.266 30.612,-137.266"/>
<polygon fill="black" stroke="black" points="30.935,-139.817 43.935,-135.266 30.935,-130.717 30.935,-139.817"/>
</g>
<!-- both -->
<g id="node2" class="node"><title>both</title>
<ellipse fill="none" stroke="black" cx="288.638" cy="-135.266" rx="42.4724" ry="42.4724"/>
<ellipse fill="none" stroke="black" cx="288.638" cy="-135.266" rx="46.4938" ry="46.4938"/>
<text text-anchor="middle" x="288.638" y="-131.566" font-family="Times,serif" font-size="14.00">odd both</text>
</g>
<!-- a -->
<g id="node4" class="node"><title>a</title>
<ellipse fill="none" stroke="black" cx="183.919" cy="-30.5473" rx="30.5947" ry="30.5947"/>
<text text-anchor="middle" x="183.919" y="-26.8473" font-family="Times,serif" font-size="14.00">odd a</text>
</g>
<!-- both&#45;&gt;a -->
<g id="edge8" class="edge"><title>both&#45;&gt;a</title>
<path fill="none" stroke="black" d="M265.787,-94.7106C251.637,-78.4084 233.459,-60.5823 217.712,-47.6906"/>
<polygon fill="black" stroke="black" points="212.033,-43.1763 219.473,-45.0661 214.773,-45.3542 217.513,-47.532 217.513,-47.532 217.513,-47.532 214.773,-45.3542 215.553,-49.9979 212.033,-43.1763 212.033,-43.1763"/>
<text text-anchor="middle" x="238.25" y="-75.0006" font-family="Times,serif" font-size="14.00">b</text>
</g>
<!-- b -->
<g id="node5" class="node"><title>b</title>
<ellipse fill="none" stroke="black" cx="183.919" cy="-239.986" rx="30.5947" ry="30.5947"/>
<text text-anchor="middle" x="183.919" y="-236.286" font-family="Times,serif" font-size="14.00">odd b</text>
</g>
<!-- both&#45;&gt;b -->
<g id="edge9" class="edge"><title>both&#45;&gt;b</title>
<path fill="none" stroke="black" d="M248.083,-158.117C231.78,-172.268 213.954,-190.446 201.063,-206.192"/>
<polygon fill="black" stroke="black" points="196.548,-211.872 198.438,-204.432 198.726,-209.132 200.904,-206.392 200.904,-206.392 200.904,-206.392 198.726,-209.132 203.37,-208.352 196.548,-211.872 196.548,-211.872"/>
<text text-anchor="middle" x="221.073" y="-185.955" font-family="Times,serif" font-size="14.00">a</text>
</g>
<!-- neither&#45;&gt;a -->
<g id="edge2" class="edge"><title>neither&#45;&gt;a</title>
<path fill="none" stroke="black" d="M110.819,-119.884C129.269,-105.107 151.584,-82.9215 166.888,-64.2039"/>
<polygon fill="black" stroke="black" points="171.4,-58.5184 169.516,-65.9597 169.224,-61.2599 167.048,-64.0015 167.048,-64.0015 167.048,-64.0015 169.224,-61.2599 164.581,-62.0432 171.4,-58.5184 171.4,-58.5184"/>
<text text-anchor="middle" x="135.353" y="-95.8439" font-family="Times,serif" font-size="14.00">a</text>
</g>
<!-- neither&#45;&gt;b -->
<g id="edge4" class="edge"><title>neither&#45;&gt;b</title>
<path fill="none" stroke="black" d="M94.5827,-166.886C109.36,-185.335 131.545,-207.65 150.263,-222.954"/>
<polygon fill="black" stroke="black" points="155.948,-227.466 148.507,-225.582 153.207,-225.291 150.465,-223.115 150.465,-223.115 150.465,-223.115 153.207,-225.291 152.423,-220.647 155.948,-227.466 155.948,-227.466"/>
<text text-anchor="middle" x="118.923" y="-198.72" font-family="Times,serif" font-size="14.00">b</text>
</g>
<!-- a&#45;&gt;both -->
<g id="edge6" class="edge"><title>a&#45;&gt;both</title>
<path fill="none" stroke="black" d="M196.391,-58.457C208.078,-73.683 225.678,-92.2514 242.467,-107.438"/>
<polygon fill="black" stroke="black" points="248.121,-112.449 240.793,-110.163 245.501,-110.127 242.882,-107.805 242.882,-107.805 242.882,-107.805 245.501,-110.127 244.972,-105.448 248.121,-112.449 248.121,-112.449"/>
<text text-anchor="middle" x="215.929" y="-86.7474" font-family="Times,serif" font-size="14.00">b</text>
</g>
<!-- a&#45;&gt;neither -->
<g id="edge3" class="edge"><title>a&#45;&gt;neither</title>
<path fill="none" stroke="black" d="M156.009,-43.0194C138.213,-56.6785 115.851,-78.4165 99.6595,-97.4966"/>
<polygon fill="black" stroke="black" points="94.8445,-103.321 96.877,-95.9185 97.0747,-100.623 99.3048,-97.9256 99.3048,-97.9256 99.3048,-97.9256 97.0747,-100.623 101.733,-99.9327 94.8445,-103.321 94.8445,-103.321"/>
<text text-anchor="middle" x="124.334" y="-74.058" font-family="Times,serif" font-size="14.00">a</text>
</g>
<!-- b&#45;&gt;both -->
<g id="edge7" class="edge"><title>b&#45;&gt;both</title>
<path fill="none" stroke="black" d="M211.829,-227.514C227.055,-215.827 245.623,-198.227 260.81,-181.437"/>
<polygon fill="black" stroke="black" points="265.82,-175.784 263.535,-183.112 263.499,-178.403 261.177,-181.023 261.177,-181.023 261.177,-181.023 263.499,-178.403 258.82,-178.933 265.82,-175.784 265.82,-175.784"/>
<text text-anchor="middle" x="232.819" y="-208.275" font-family="Times,serif" font-size="14.00">a</text>
</g>
<!-- b&#45;&gt;neither -->
<g id="edge5" class="edge"><title>b&#45;&gt;neither</title>
<path fill="none" stroke="black" d="M171.447,-212.076C157.788,-194.28 136.05,-171.917 116.97,-155.726"/>
<polygon fill="black" stroke="black" points="111.146,-150.911 118.548,-152.943 113.843,-153.141 116.541,-155.371 116.541,-155.371 116.541,-155.371 113.843,-153.141 114.534,-157.799 111.146,-150.911 111.146,-150.911"/>
<text text-anchor="middle" x="140.708" y="-187.701" font-family="Times,serif" font-size="14.00">b</text>
</g>
</g>
</svg>
